<svg width="123" height="128" viewBox="0 0 123 128" xmlns="http://www.w3.org/2000/svg">
<g clip-path="url(#clip0_19_5265)">
<path fill-rule="evenodd" clip-rule="evenodd" d="M64.144 0.435761C63.3363 0.489435 62.5378 0.628563 61.766 0.870423L7.35133 17.4658C2.3415 18.9965 -0.584728 24.1964 0.702986 29.2795L7.04447 86.4047C7.33805 89.0034 8.65389 91.3778 10.7012 93.002L50.9495 125.017C51.1236 125.167 51.3029 125.312 51.4863 125.451C51.7416 125.651 52.0063 125.84 52.2784 126.014C52.5518 126.19 52.8333 126.352 53.1228 126.5C53.3976 126.642 53.6804 126.769 53.9673 126.884L54.1715 126.962C54.3731 127.041 54.5786 127.105 54.7855 127.166C54.9716 127.22 55.1584 127.271 55.3485 127.32L55.4795 127.346H55.5332C55.7529 127.4 55.9746 127.438 56.1983 127.477L56.8372 127.556H56.9903C57.1852 127.569 57.382 127.583 57.5782 127.583C57.8516 127.577 58.1244 127.556 58.3965 127.529C58.7223 127.502 59.0474 127.462 59.3679 127.398C59.695 127.331 60.0195 127.261 60.3393 127.168C61.261 126.906 62.1401 126.51 62.9476 125.992L113.552 97.5831C116.454 95.9503 118.331 92.9564 118.538 89.6305L122.246 28.4653C122.395 25.9209 121.552 23.4179 119.894 21.4845C119.827 21.4059 119.759 21.33 119.689 21.254C119.313 20.8456 118.903 20.4685 118.463 20.1294C118.384 20.0622 118.31 20.0118 118.232 19.95L118.079 19.8452C117.864 19.6827 117.642 19.5295 117.414 19.3844C117.222 19.2796 117.025 19.1734 116.826 19.078C116.735 19.0378 116.639 18.9866 116.545 18.947C116.343 18.8423 116.139 18.7522 115.931 18.6656L115.852 18.6386C115.717 18.5983 115.58 18.5471 115.444 18.5076L68.0098 1.01722C66.7752 0.564418 65.4621 0.36421 64.1486 0.429388L64.144 0.435761ZM62.1594 10.1022C66.4191 9.503 70.5998 10.508 71.4927 12.3525C72.3843 14.194 69.641 16.1766 65.3812 16.7761C61.1215 17.3761 56.965 16.3677 56.0734 14.526C55.1805 12.682 57.8995 10.7019 62.1594 10.1022ZM34.773 17.8246C39.2829 17.1465 43.6981 18.2948 44.6433 20.3816C45.5873 22.4665 42.6838 24.7155 38.1739 25.3936C33.6639 26.0718 29.2475 24.9213 28.3036 22.8364C27.3583 20.7489 30.2631 18.5028 34.773 17.8246ZM89.8014 18.9244C94.5615 19.5767 97.5991 21.7278 96.6032 23.7315C95.6056 25.7379 90.956 26.8382 86.1959 26.1864C81.4357 25.5341 78.3712 23.36 79.3684 21.3535C80.3648 19.3498 85.0413 18.2725 89.8014 18.9244ZM59.0397 19.2307C64.3002 18.5784 69.4441 19.6781 70.5465 21.6855C71.6476 23.6893 68.2892 25.8409 63.0287 26.4928C57.7682 27.1452 52.5973 26.0414 51.4963 24.038C50.394 22.0315 53.7793 19.8827 59.0397 19.2307ZM60.932 29.2033C64.7712 29.341 67.98 30.4157 68.8333 32.0418C69.9683 34.2076 66.487 36.5282 61.0597 37.2325C55.6324 37.9369 50.3044 36.7649 49.1693 34.5988C48.0316 32.4301 51.5156 30.0867 56.9429 29.3823C58.2996 29.2069 59.6522 29.1572 60.932 29.2029V29.2033ZM15.3413 38.548C17.2589 38.6655 19.5678 40.7227 21.1969 43.9946C23.3697 48.3572 23.485 53.2569 21.4521 54.9132C19.4224 56.5674 16.0298 54.3657 13.8577 50.0036C11.6849 45.6412 11.5722 40.7647 13.6024 39.1105C14.1103 38.6967 14.7022 38.5073 15.3414 38.5476L15.3413 38.548ZM104.413 43.3663C105.291 43.2487 106.15 43.3261 106.919 43.6988C109.988 45.1777 110.577 50.3112 108.248 55.1546C105.92 59.9977 101.549 62.7193 98.4804 61.2404C95.4072 59.7594 94.7967 54.6535 97.1251 49.8102C98.8714 46.1777 101.776 43.7358 104.413 43.3664V43.3663ZM36.7951 50.7452C38.8776 50.8762 41.4186 53.0473 43.1878 56.4987C45.5465 61.1004 45.6763 66.2328 43.4693 67.98C41.2651 69.7249 37.5433 67.417 35.1843 62.8147C32.826 58.2129 32.6989 53.0527 34.9029 51.3078C35.4537 50.8704 36.1008 50.7018 36.7951 50.7448V50.7452ZM76.6429 54.9498C77.5214 54.8322 78.3806 54.9096 79.1489 55.2824C82.2178 56.7613 82.8068 61.8947 80.4785 66.738C78.15 71.5813 73.7796 74.3029 70.7106 72.824C67.6374 71.343 67.0524 66.237 69.3808 61.3938C71.1271 57.7614 74.0062 55.3192 76.6429 54.9499V54.9498ZM17.8983 57.1123C19.651 57.2433 21.7793 59.3295 23.2682 62.6613C25.2539 67.1036 25.3561 72.0723 23.4987 73.759C21.6435 75.4434 18.5288 73.2156 16.5434 68.7727C14.5575 64.3304 14.458 59.3594 16.313 57.6749C16.7779 57.253 17.3145 57.0703 17.8983 57.1119V57.1123ZM38.0992 70.8439C40.1817 70.9749 42.6971 73.1459 44.4664 76.5973C46.8251 81.1989 46.9548 86.3315 44.7479 88.0787C42.5436 89.8236 38.8474 87.5157 36.4885 82.9132C34.1302 78.3115 34.003 73.1514 36.207 71.4064C36.7579 70.9691 37.4049 70.8005 38.0992 70.8435V70.8439ZM103.799 75.1763C104.678 75.0587 105.537 75.1628 106.305 75.535C109.374 77.0139 109.963 82.1218 107.635 86.9652C105.306 91.8084 100.936 94.5554 97.8667 93.0765C94.7936 91.5955 94.183 86.464 96.5114 81.6208C98.2578 77.9884 101.162 75.5464 103.799 75.1769V75.1763ZM20.1741 75.9578C21.8169 76.0626 23.8159 77.8608 25.2115 80.7142C27.0729 84.5184 27.1572 88.7821 25.4157 90.2264C23.6768 91.6689 20.7561 89.7602 18.8951 85.9561C17.0348 82.1519 16.9517 77.8861 18.6909 76.4437C19.1269 76.0823 19.6257 75.9224 20.1739 75.958L20.1741 75.9578ZM76.9498 87.8337C77.8282 87.7162 78.6875 87.8203 79.4558 88.1925C82.5247 89.6713 83.1393 94.8049 80.8109 99.6482C78.4824 104.491 74.0865 107.213 71.0174 105.734C67.9443 104.253 67.3592 99.1215 69.6876 94.2783C71.434 90.6457 74.3131 88.2037 76.9498 87.8344V87.8337ZM39.3266 89.9963C41.4091 90.1273 43.9501 92.2984 45.7193 95.7497C48.078 100.351 48.1822 105.484 45.9746 107.231C43.7704 108.976 40.0742 106.668 37.7152 102.066C35.3569 97.4639 35.2298 92.3293 37.4337 90.5844C37.9853 90.147 38.6317 89.9536 39.326 89.9965L39.3266 89.9963Z"/>
</g>
<defs>
<clipPath id="clip0_19_5265">
<rect width="122.663" height="128" fill="white"/>
</clipPath>
</defs>
</svg>
